<svg xmlns="http://www.w3.org/2000/svg" width="26" height="31" viewBox="0 0 26 31" fill="none">
  <g clip-path="url(#clip0_40_1790)">
    <path fill-rule="evenodd" clip-rule="evenodd" d="M15.6637 11.0259C16.6106 10.5537 17.8153 9.85875 19.0216 8.90655C19.2759 9.4347 19.3037 9.89558 19.1727 10.2677C19.0799 10.53 18.9049 10.7581 18.6748 10.9396C18.4256 11.1357 18.1144 11.2785 17.7705 11.3557C17.1178 11.5027 16.3557 11.4169 15.6637 11.0259ZM15.8279 15.8633L17.0813 16.5873C14.5221 18.0216 13.8264 20.685 13 23.2791C12.1737 20.685 11.4778 18.0216 8.9188 16.5873L10.1722 15.8633C10.2934 15.8175 10.397 15.7345 10.4682 15.6261C10.5394 15.5178 10.5744 15.3897 10.5684 15.2602C10.4535 12.8308 11.1095 11.7564 11.9943 11.0819C12.3117 10.8402 12.6582 10.7189 13 10.7189C13.3418 10.7189 13.6883 10.8402 14.0057 11.0819C14.8905 11.7564 15.5465 12.8308 15.4317 15.2602C15.4256 15.3897 15.4607 15.5178 15.5318 15.6261C15.603 15.7345 15.7066 15.8175 15.8279 15.8633ZM13 0C14.4488 0.0388968 15.9011 0.320151 17.1616 0.867286C18.0345 1.24666 18.8489 1.74778 19.5864 2.34702C19.9195 2.61754 20.1937 2.87888 20.4958 3.17974C21.3106 3.2079 22.5013 2.30275 23.0541 1.45579C22.1028 4.57476 17.7614 8.25799 14.7558 9.66736C14.7546 9.66684 14.7537 9.66612 14.7528 9.6655C14.2134 9.25363 13.6067 9.04769 13 9.04769C12.3932 9.04769 11.7866 9.25363 11.2472 9.6655C11.2463 9.66602 11.2455 9.66694 11.2443 9.66736C8.23857 8.25799 3.8973 4.57476 2.94592 1.45579C3.49863 2.30275 4.68937 3.2079 5.50414 3.17974C5.80634 2.87898 6.08057 2.61754 6.41352 2.34702C7.15101 1.74778 7.96547 1.24666 8.83833 0.867286C10.0989 0.320151 11.5513 0.0388968 13 0ZM10.3362 11.0259C9.38949 10.5537 8.18461 9.85875 6.9785 8.90655C6.72418 9.4347 6.69632 9.89558 6.82725 10.2677C6.92021 10.53 7.09519 10.7581 7.32517 10.9396C7.57444 11.1357 7.88561 11.2785 8.2296 11.3557C8.88228 11.5027 9.64422 11.4169 10.3362 11.0259Z" fill="white" fill-opacity="0.6"/>
    <path fill-rule="evenodd" clip-rule="evenodd" d="M20.3426 7.73975C21.0067 7.06963 21.5918 6.32791 22.0622 5.66605L22.3012 6.11578C23.0705 7.65484 23.4702 9.1877 23.4702 10.9128L23.4685 13.6502L23.483 15.0693C23.5387 18.5531 24.2925 22.0778 26 25.3035L22.4274 22.4226L19.8995 26.5248L17.2438 24.0247L13 30.9115L8.75622 24.0248L6.10061 26.5249L3.57273 22.4227L0 25.3036C1.70754 22.0779 2.46133 18.5532 2.51715 15.0694L2.5316 13.6503L2.52994 10.9129C2.52994 9.18771 2.92954 7.65484 3.69902 6.11589L3.93787 5.66615C4.40834 6.32801 4.99334 7.06963 5.65748 7.73986L5.4501 8.17061C5.0472 9.00725 4.91379 9.94274 5.22765 10.8324C5.42998 11.4054 5.79924 11.8969 6.27529 12.272C6.73751 12.6363 7.28454 12.8819 7.85726 13.0108C8.23034 13.0948 8.61044 13.1294 8.98806 13.1176C8.89994 13.6171 8.86146 14.1351 8.85898 14.663L5.48889 16.6095L8.08951 18.0672C8.29737 18.1838 8.49524 18.3173 8.68111 18.4664C10.8252 20.3914 12.1142 26.0864 13.0001 28.8681C13.8861 26.0864 15.175 20.3914 17.3192 18.4664C17.5051 18.3173 17.7029 18.1837 17.9108 18.0672L20.5114 16.6095L17.1412 14.663C17.1387 14.1351 17.1003 13.6171 17.0121 13.1176C17.3898 13.1294 17.7699 13.0948 18.1429 13.0108C18.7157 12.8819 19.2628 12.6363 19.7249 12.272C20.2009 11.8969 20.5702 11.4054 20.7725 10.8324C21.0864 9.94274 20.9529 9.00736 20.5501 8.17061L20.3427 7.73986L20.3426 7.73975Z" fill="white" fill-opacity="0.6"/>
  </g>
  <defs>
    <clipPath id="clip0_40_1790">
      <rect width="26" height="30.9524" fill="white"/>
    </clipPath>
  </defs>
</svg>
