<svg xmlns="http://www.w3.org/2000/svg" width="48" height="48" viewBox="0 0 48 48" fill="none">
  <g clip-path="url(#clip0_40_1802)">
    <path d="M24 0C37.2552 0 48 10.7448 48 24C48 37.2552 37.2552 48 24 48C10.7448 48 0 37.2552 0 24C0 10.7448 10.7448 0 24 0Z" fill="#034CFF"/>
    <path d="M9.23035 30.756L24.0383 22.4448L23.6831 24.936L9.23035 17.5176V12.3888L15.7943 16.2216L20.1311 18.7128L29.3687 24.0192L20.1527 29.2968L15.8087 31.7856L9.23035 35.9208V30.756Z" fill="white"/>
    <path d="M17.0544 14.4384C16.5864 15.0024 16.164 15.5952 15.7944 16.2216L20.1312 18.7128C20.3592 18.2952 20.616 17.8968 20.9016 17.5176C21.5856 16.6128 22.44 15.9048 23.4672 15.3936C24.492 14.856 25.6896 14.5872 27.0576 14.5872C28.3032 14.5872 29.34 14.7576 30.1704 15.1008C31.0248 15.4416 31.7088 15.8712 32.2224 16.3824C32.736 16.896 33.1128 17.4216 33.3576 17.9568C33.5808 18.3816 33.7368 18.7488 33.8232 19.056L38.7552 18.744C38.664 18.3336 38.5128 17.8392 38.3016 17.2608C38.0328 16.5288 37.6296 15.7464 37.092 14.916C36.5784 14.0856 35.8824 13.3032 35.004 12.5712C34.1256 11.8392 33.0264 11.2392 31.7064 10.776C30.3864 10.3128 28.812 10.08 26.9808 10.08C24.7824 10.08 22.8528 10.4712 21.192 11.2512C19.5552 12.0336 18.1752 13.0944 17.052 14.4384H17.0544Z" fill="white"/>
    <path d="M21.1944 36.7488C22.8552 37.5312 24.7848 37.92 26.9832 37.92C28.8144 37.92 30.3912 37.6872 31.7088 37.224C33.0288 36.7608 34.1256 36.1608 35.0064 35.4288C35.8848 34.6704 36.5808 33.8904 37.0944 33.084C37.632 32.2536 38.0352 31.4712 38.304 30.7392C38.5248 30.1152 38.6808 29.592 38.7696 29.1672L33.8712 28.7616C33.7968 29.1024 33.6264 29.532 33.3576 30.0432C33.1128 30.5568 32.7336 31.068 32.2224 31.5816C31.7088 32.0952 31.0248 32.5344 30.1704 32.8992C29.34 33.2424 28.3032 33.4128 27.0576 33.4128C25.6896 33.4128 24.4944 33.144 23.4672 32.6064C22.44 32.0688 21.5856 31.3488 20.9016 30.444C20.6232 30.0768 20.3736 29.6928 20.1528 29.292L15.8088 31.7808C16.176 32.4 16.5912 32.9904 17.0568 33.5568C18.18 34.8744 19.56 35.9376 21.1968 36.744L21.1944 36.7488Z" fill="white"/>
  </g>
  <defs>
    <clipPath id="clip0_40_1802">
      <rect width="48" height="48" fill="white"/>
    </clipPath>
  </defs>
</svg>