<svg xmlns="http://www.w3.org/2000/svg" width="48" height="48" viewBox="0 0 48 48" fill="none">
  <g clip-path="url(#clip0_40_1830)">
    <path d="M24 48C37.2548 48 48 37.2548 48 24C48 10.7452 37.2548 0 24 0C10.7452 0 0 10.7452 0 24C0 37.2548 10.7452 48 24 48Z" fill="#F3BC36"/>
    <path fill-rule="evenodd" clip-rule="evenodd" d="M18.7944 21.8544L24 16.6464L29.22 21.8664L32.2512 18.8352L24 10.584L15.7608 18.8208L18.7944 21.8544ZM10.584 24L13.6152 20.9688L16.6464 24L13.6152 27.0312L10.584 24ZM18.7944 26.16L24 31.3536L29.22 26.1336L32.2512 29.1648L24 37.4184L15.7608 29.1792L18.7944 26.16ZM31.3536 24L34.3848 20.9688L37.4184 24L34.3848 27.0312L31.3536 24ZM27.0864 24L24 27.072L20.928 24L21.4632 23.4624L21.732 23.196L24 20.928L27.0864 24Z" fill="white"/>
  </g>
  <defs>
    <clipPath id="clip0_40_1830">
      <rect width="48" height="48" fill="white"/>
    </clipPath>
  </defs>
</svg>