<svg xmlns="http://www.w3.org/2000/svg" width="48" height="48" viewBox="0 0 48 48" fill="none">
  <path d="M44.7751 3.59061C44.7376 3.42186 44.6063 3.29061 44.4469 3.24373C38.9532 1.90311 26.2688 6.68436 19.3969 13.5562C18.1688 14.775 17.0532 16.0969 16.0594 17.5031C13.9407 17.3156 11.8219 17.475 10.0126 18.2625C4.91256 20.5031 3.43131 26.3625 3.00943 28.875C2.92506 29.3625 3.25318 29.8312 3.75006 29.9156C3.83443 29.925 3.91881 29.9344 4.00318 29.925L12.1876 29.025C12.1969 29.6437 12.2344 30.2625 12.3001 30.8719C12.3376 31.2937 12.5344 31.6969 12.8344 31.9969L16.0032 35.1562C16.3032 35.4562 16.7063 35.6531 17.1282 35.6906C17.7376 35.7562 18.3469 35.7937 18.9657 35.8031L18.0657 43.9781C18.0094 44.475 18.3751 44.925 18.8719 44.9719C18.9563 44.9812 19.0407 44.9812 19.1157 44.9625C21.6282 44.5594 27.4969 43.0781 29.7282 37.9781C30.5157 36.1687 30.6751 34.0594 30.4969 31.95C31.9126 30.9562 33.2344 29.8312 34.4532 28.6125C41.3438 21.7594 46.0969 9.35623 44.7751 3.59061ZM33.9282 20.4281C32.1751 22.1812 29.3251 22.1906 27.5719 20.4281C25.8094 18.675 25.8094 15.825 27.5719 14.0625C29.3251 12.3 32.1751 12.3 33.9376 14.0625C35.6907 15.825 35.6907 18.675 33.9282 20.4281Z" fill="#FF8C00"/>
  <path d="M15.7875 37.4437C15.2719 37.9593 14.4469 38.1562 13.4531 38.3343C11.2219 38.7093 9.25313 36.7874 9.65625 34.5374C9.80625 33.6843 10.2656 32.4843 10.5469 32.203C10.7063 32.0437 10.7156 31.7812 10.5562 31.6218C10.4625 31.528 10.3406 31.4812 10.2094 31.4999C8.9625 31.6499 7.8 32.2218 6.91875 33.103C4.70625 35.3155 4.5 43.4999 4.5 43.4999C4.5 43.4999 12.6937 43.2937 14.8969 41.0812C15.7875 40.1905 16.35 39.0374 16.5 37.7812C16.5375 37.3968 16.0594 37.1624 15.7875 37.4437Z" fill="#FF8C00"/>
</svg>