<svg xmlns="http://www.w3.org/2000/svg" width="48" height="48" viewBox="0 0 48 48" fill="none">
  <g clip-path="url(#clip0_40_1819)">
    <path d="M15.999 15.9998C25.156 15.9998 31.9982 12.3799 31.9982 9.14315C31.9982 5.90668 25.1559 2.28662 15.999 2.28662C6.84221 2.28662 0 5.90668 0 9.14315C0 12.3799 6.84206 15.9998 15.999 15.9998Z" fill="#FF8C00"/>
    <path d="M15.999 43.4274C17.3356 43.4274 18.622 43.3497 19.8456 43.2081C18.8141 41.8826 17.9612 40.4116 17.3222 38.8319C16.8831 38.8467 16.4425 38.8569 15.9989 38.8569C10.7666 38.8569 5.81154 37.8201 2.04686 35.9377C1.30559 35.5671 0.62346 35.1688 0 34.7473V36.5709C0 39.8074 6.84206 43.4274 15.999 43.4274Z" fill="#FF8C00"/>
    <path d="M15.9991 34.285C16.046 34.285 16.0922 34.2842 16.139 34.2841C16.0452 33.5349 15.9963 32.7718 15.9963 31.9976C15.9963 31.2238 16.0451 30.4612 16.139 29.7126C16.0922 29.7126 16.0459 29.7143 15.9991 29.7143C10.7668 29.7143 5.81188 28.6775 2.04704 26.7951C1.30562 26.4245 0.623338 26.0262 -0.00012207 25.6049V27.4283C3.03276e-05 30.6649 6.84209 34.285 15.9991 34.285Z" fill="#FF8C00"/>
    <path d="M15.9991 25.1421C16.4526 25.1421 16.9 25.133 17.3418 25.1156C18.0514 23.3748 19.0211 21.7668 20.2034 20.3408C18.8346 20.4917 17.4278 20.5717 15.9991 20.5717C10.7668 20.5717 5.81188 19.535 2.04704 17.6525C1.30562 17.2818 0.623338 16.8837 -0.00012207 16.4622V18.2858C3.03276e-05 21.5224 6.84209 25.1421 15.9991 25.1421Z" fill="#FF8C00"/>
    <path d="M22.8569 24.4209C21.8679 25.9079 21.1612 27.5978 20.8136 29.4138C20.6531 30.2509 20.5684 31.1145 20.5684 31.9977C20.5684 32.6617 20.6168 33.3145 20.7084 33.9535C20.9335 35.5234 21.4253 37.0078 22.1364 38.36C22.8825 39.779 23.8696 41.0522 25.0435 42.1244C27.4831 44.3526 30.7277 45.7135 34.2842 45.7135C41.8471 45.7135 48 39.5606 48 31.9977C48 24.4346 41.8471 18.2819 34.2842 18.2819C33.5025 18.2819 32.7361 18.3486 31.9897 18.4748C28.1876 19.1178 24.9129 21.3304 22.8569 24.4209Z" fill="#FF8C00"/>
  </g>
  <defs>
    <clipPath id="clip0_40_1819">
      <rect width="48" height="48" fill="white"/>
    </clipPath>
  </defs>
</svg>