<svg width="345" height="345" viewBox="0 0 345 345" fill="none" xmlns="http://www.w3.org/2000/svg">
<path d="M193.395 106.955L225.193 9.09109C208.077 3.52987 190.193 0.697266 172.197 0.697266V103.597C179.395 103.597 186.549 104.73 193.395 106.955Z" fill="#FF6A00" stroke="white" stroke-width="1.39431"/>
<path d="M181.832 33.8577L183.505 33.7161C183.629 34.5304 183.915 35.144 184.363 35.557C184.818 35.9642 185.363 36.1677 186.001 36.1677C186.768 36.1677 187.417 35.8786 187.948 35.3004C188.479 34.7221 188.744 33.9551 188.744 32.9992C188.744 32.0905 188.488 31.3736 187.974 30.8485C187.467 30.3234 186.8 30.0608 185.974 30.0608C185.461 30.0608 184.998 30.1788 184.585 30.4148C184.172 30.6449 183.847 30.9459 183.611 31.3176L182.115 31.1229L183.372 24.4584H189.824V25.9807H184.647L183.947 29.4678C184.726 28.925 185.543 28.6536 186.399 28.6536C187.532 28.6536 188.488 29.0459 189.267 29.8307C190.045 30.6154 190.435 31.6244 190.435 32.8576C190.435 34.0318 190.093 35.0466 189.408 35.9022C188.576 36.9525 187.44 37.4776 186.001 37.4776C184.821 37.4776 183.856 37.1472 183.107 36.4863C182.363 35.8255 181.938 34.9493 181.832 33.8577ZM192.223 27.3968C192.223 26.4704 192.456 25.6827 192.922 25.0337C193.388 24.3846 194.064 24.0601 194.949 24.0601C195.763 24.0601 196.436 24.3522 196.967 24.9363C197.503 25.5145 197.772 26.3671 197.772 27.4941C197.772 28.5916 197.501 29.4383 196.958 30.0343C196.421 30.6243 195.757 30.9193 194.966 30.9193C194.182 30.9193 193.527 30.6272 193.001 30.0431C192.482 29.459 192.223 28.5769 192.223 27.3968ZM194.993 25.1576C194.598 25.1576 194.267 25.3287 194.002 25.6709C193.742 26.0131 193.612 26.6415 193.612 27.5561C193.612 28.388 193.745 28.9751 194.01 29.3174C194.276 29.6537 194.603 29.8218 194.993 29.8218C195.394 29.8218 195.725 29.6507 195.984 29.3085C196.25 28.9663 196.382 28.3408 196.382 27.4322C196.382 26.5943 196.25 26.0072 195.984 25.6709C195.719 25.3287 195.388 25.1576 194.993 25.1576ZM195.002 37.7343L202.1 24.0601H203.392L196.32 37.7343H195.002ZM200.613 34.2117C200.613 33.2795 200.846 32.4918 201.312 31.8486C201.778 31.1996 202.457 30.8751 203.348 30.8751C204.162 30.8751 204.835 31.1671 205.366 31.7513C205.903 32.3295 206.171 33.1821 206.171 34.3091C206.171 35.4066 205.9 36.2533 205.357 36.8492C204.82 37.4393 204.153 37.7343 203.357 37.7343C202.572 37.7343 201.917 37.4422 201.392 36.8581C200.873 36.268 200.613 35.3859 200.613 34.2117ZM203.392 31.9725C202.991 31.9725 202.657 32.1436 202.392 32.4859C202.132 32.8281 202.003 33.4565 202.003 34.371C202.003 35.1971 202.135 35.7812 202.401 36.1235C202.666 36.4657 202.994 36.6368 203.383 36.6368C203.79 36.6368 204.124 36.4657 204.383 36.1235C204.649 35.7812 204.782 35.1558 204.782 34.2471C204.782 33.4093 204.649 32.8222 204.383 32.4859C204.118 32.1436 203.787 31.9725 203.392 31.9725Z" fill="white"/>
<path d="M212.52 116.699L273.003 33.4511C258.443 22.8731 242.31 14.6525 225.194 9.09131L193.396 106.955C200.242 109.18 206.696 112.468 212.52 116.699Z" fill="#FF3C00" stroke="white" stroke-width="1.39431"/>
<path d="M222.78 50.0848L224.453 49.9432C224.577 50.7574 224.863 51.3711 225.312 51.7841C225.766 52.1912 226.312 52.3948 226.949 52.3948C227.716 52.3948 228.365 52.1057 228.896 51.5274C229.427 50.9492 229.693 50.1821 229.693 49.2263C229.693 48.3176 229.436 47.6007 228.923 47.0756C228.415 46.5504 227.749 46.2879 226.922 46.2879C226.409 46.2879 225.946 46.4059 225.533 46.6419C225.12 46.872 224.795 47.1729 224.559 47.5446L223.064 47.3499L224.32 40.6854H230.772V42.2077H225.595L224.896 45.6949C225.675 45.152 226.492 44.8806 227.347 44.8806C228.48 44.8806 229.436 45.273 230.215 46.0577C230.994 46.8425 231.383 47.8515 231.383 49.0846C231.383 50.2588 231.041 51.2737 230.356 52.1293C229.525 53.1795 228.389 53.7047 226.949 53.7047C225.769 53.7047 224.804 53.3742 224.055 52.7134C223.311 52.0525 222.887 51.1763 222.78 50.0848ZM233.171 43.6238C233.171 42.6975 233.404 41.9098 233.87 41.2607C234.336 40.6117 235.012 40.2871 235.897 40.2871C236.711 40.2871 237.384 40.5792 237.915 41.1634C238.452 41.7416 238.72 42.5942 238.72 43.7212C238.72 44.8187 238.449 45.6654 237.906 46.2613C237.369 46.8513 236.705 47.1464 235.915 47.1464C235.13 47.1464 234.475 46.8543 233.95 46.2702C233.431 45.686 233.171 44.8039 233.171 43.6238ZM235.941 41.3846C235.546 41.3846 235.215 41.5557 234.95 41.898C234.69 42.2402 234.561 42.8686 234.561 43.7831C234.561 44.6151 234.693 45.2022 234.959 45.5444C235.224 45.8807 235.552 46.0489 235.941 46.0489C236.342 46.0489 236.673 45.8778 236.933 45.5356C237.198 45.1933 237.331 44.5679 237.331 43.6592C237.331 42.8214 237.198 42.2343 236.933 41.898C236.667 41.5557 236.337 41.3846 235.941 41.3846ZM235.95 53.9613L243.048 40.2871H244.34L237.269 53.9613H235.95ZM241.561 50.4388C241.561 49.5065 241.794 48.7188 242.261 48.0757C242.727 47.4266 243.405 47.1021 244.296 47.1021C245.11 47.1021 245.783 47.3942 246.314 47.9783C246.851 48.5566 247.12 49.4092 247.12 50.5361C247.12 51.6336 246.848 52.4803 246.305 53.0763C245.768 53.6663 245.102 53.9613 244.305 53.9613C243.52 53.9613 242.865 53.6693 242.34 53.0851C241.821 52.4951 241.561 51.613 241.561 50.4388ZM244.34 48.1996C243.939 48.1996 243.606 48.3707 243.34 48.7129C243.081 49.0551 242.951 49.6835 242.951 50.5981C242.951 51.4242 243.084 52.0083 243.349 52.3505C243.615 52.6927 243.942 52.8639 244.332 52.8639C244.739 52.8639 245.072 52.6927 245.332 52.3505C245.597 52.0083 245.73 51.3829 245.73 50.4742C245.73 49.6363 245.597 49.0492 245.332 48.7129C245.066 48.3707 244.736 48.1996 244.34 48.1996Z" fill="white"/>
<path d="M240.797 172.198H343.697C343.697 145.133 337.292 118.453 325.005 94.3383C312.718 70.2236 294.898 49.3593 273.002 33.4512L212.519 116.699C221.277 123.062 228.405 131.408 233.32 141.054C238.235 150.7 240.797 161.372 240.797 172.198Z" fill="#FF0000" stroke="white" stroke-width="1.39431"/>
<path d="M278.942 116.986H277.349V106.834C276.965 107.2 276.461 107.566 275.836 107.932C275.216 108.297 274.658 108.572 274.163 108.755V107.215C275.054 106.796 275.833 106.288 276.499 105.692C277.166 105.097 277.638 104.518 277.915 103.958H278.942V116.986ZM283.031 113.587L284.704 113.446C284.828 114.26 285.114 114.873 285.562 115.287C286.017 115.694 286.562 115.897 287.2 115.897C287.967 115.897 288.616 115.608 289.147 115.03C289.678 114.452 289.943 113.685 289.943 112.729C289.943 111.82 289.687 111.103 289.173 110.578C288.666 110.053 287.999 109.79 287.173 109.79C286.66 109.79 286.197 109.908 285.784 110.144C285.371 110.374 285.046 110.675 284.81 111.047L283.314 110.852L284.571 104.188H291.023V105.71H285.846L285.146 109.197C285.925 108.654 286.742 108.383 287.598 108.383C288.731 108.383 289.687 108.775 290.466 109.56C291.244 110.345 291.634 111.354 291.634 112.587C291.634 113.761 291.292 114.776 290.607 115.632C289.775 116.682 288.639 117.207 287.2 117.207C286.02 117.207 285.055 116.877 284.306 116.216C283.562 115.555 283.137 114.679 283.031 113.587ZM293.422 107.126C293.422 106.2 293.655 105.412 294.121 104.763C294.587 104.114 295.263 103.79 296.148 103.79C296.962 103.79 297.635 104.082 298.166 104.666C298.703 105.244 298.971 106.097 298.971 107.224C298.971 108.321 298.7 109.168 298.157 109.764C297.62 110.354 296.956 110.649 296.165 110.649C295.381 110.649 294.726 110.357 294.201 109.773C293.681 109.188 293.422 108.306 293.422 107.126ZM296.192 104.887C295.797 104.887 295.466 105.058 295.201 105.4C294.941 105.743 294.811 106.371 294.811 107.286C294.811 108.118 294.944 108.705 295.21 109.047C295.475 109.383 295.803 109.551 296.192 109.551C296.593 109.551 296.924 109.38 297.183 109.038C297.449 108.696 297.581 108.07 297.581 107.162C297.581 106.324 297.449 105.737 297.183 105.4C296.918 105.058 296.587 104.887 296.192 104.887ZM296.201 117.464L303.299 103.79H304.591L297.52 117.464H296.201ZM301.812 113.941C301.812 113.009 302.045 112.221 302.511 111.578C302.977 110.929 303.656 110.605 304.547 110.605C305.361 110.605 306.034 110.897 306.565 111.481C307.102 112.059 307.37 112.912 307.37 114.039C307.37 115.136 307.099 115.983 306.556 116.579C306.019 117.169 305.352 117.464 304.556 117.464C303.771 117.464 303.116 117.172 302.591 116.588C302.072 115.998 301.812 115.115 301.812 113.941ZM304.591 111.702C304.19 111.702 303.857 111.873 303.591 112.215C303.331 112.558 303.202 113.186 303.202 114.101C303.202 114.927 303.334 115.511 303.6 115.853C303.865 116.195 304.193 116.366 304.582 116.366C304.989 116.366 305.323 116.195 305.582 115.853C305.848 115.511 305.981 114.885 305.981 113.977C305.981 113.139 305.848 112.552 305.582 112.215C305.317 111.873 304.986 111.702 304.591 111.702Z" fill="white"/>
<path d="M212.519 227.696L273.002 310.944C294.898 295.036 312.718 274.171 325.005 250.057C337.292 225.942 343.697 199.262 343.697 172.197H240.797C240.797 183.023 238.235 193.695 233.32 203.341C228.405 212.987 221.277 221.333 212.519 227.696Z" fill="#FFBB00" stroke="white" stroke-width="1.39431"/>
<path d="M278.942 237.846H277.349V227.694C276.965 228.06 276.461 228.426 275.836 228.792C275.216 229.157 274.658 229.432 274.163 229.615V228.075C275.054 227.656 275.833 227.148 276.499 226.552C277.166 225.956 277.638 225.378 277.915 224.818H278.942V237.846ZM283.031 234.447L284.704 234.305C284.828 235.12 285.114 235.733 285.562 236.146C286.017 236.554 286.562 236.757 287.2 236.757C287.967 236.757 288.616 236.468 289.147 235.89C289.678 235.311 289.943 234.544 289.943 233.589C289.943 232.68 289.687 231.963 289.173 231.438C288.666 230.913 287.999 230.65 287.173 230.65C286.66 230.65 286.197 230.768 285.784 231.004C285.371 231.234 285.046 231.535 284.81 231.907L283.314 231.712L284.571 225.048H291.023V226.57H285.846L285.146 230.057C285.925 229.514 286.742 229.243 287.598 229.243C288.731 229.243 289.687 229.635 290.466 230.42C291.244 231.205 291.634 232.214 291.634 233.447C291.634 234.621 291.292 235.636 290.607 236.492C289.775 237.542 288.639 238.067 287.2 238.067C286.02 238.067 285.055 237.737 284.306 237.076C283.562 236.415 283.137 235.539 283.031 234.447ZM293.422 227.986C293.422 227.06 293.655 226.272 294.121 225.623C294.587 224.974 295.263 224.649 296.148 224.649C296.962 224.649 297.635 224.942 298.166 225.526C298.703 226.104 298.971 226.957 298.971 228.083C298.971 229.181 298.7 230.028 298.157 230.624C297.62 231.214 296.956 231.509 296.165 231.509C295.381 231.509 294.726 231.217 294.201 230.632C293.681 230.048 293.422 229.166 293.422 227.986ZM296.192 225.747C295.797 225.747 295.466 225.918 295.201 226.26C294.941 226.602 294.811 227.231 294.811 228.145C294.811 228.977 294.944 229.564 295.21 229.907C295.475 230.243 295.803 230.411 296.192 230.411C296.593 230.411 296.924 230.24 297.183 229.898C297.449 229.556 297.581 228.93 297.581 228.022C297.581 227.184 297.449 226.597 297.183 226.26C296.918 225.918 296.587 225.747 296.192 225.747ZM296.201 238.324L303.299 224.649H304.591L297.52 238.324H296.201ZM301.812 234.801C301.812 233.869 302.045 233.081 302.511 232.438C302.977 231.789 303.656 231.464 304.547 231.464C305.361 231.464 306.034 231.756 306.565 232.341C307.102 232.919 307.37 233.771 307.37 234.898C307.37 235.996 307.099 236.843 306.556 237.439C306.019 238.029 305.352 238.324 304.556 238.324C303.771 238.324 303.116 238.032 302.591 237.447C302.072 236.857 301.812 235.975 301.812 234.801ZM304.591 232.562C304.19 232.562 303.857 232.733 303.591 233.075C303.331 233.417 303.202 234.046 303.202 234.96C303.202 235.786 303.334 236.371 303.6 236.713C303.865 237.055 304.193 237.226 304.582 237.226C304.989 237.226 305.323 237.055 305.582 236.713C305.848 236.371 305.981 235.745 305.981 234.836C305.981 233.999 305.848 233.412 305.582 233.075C305.317 232.733 304.986 232.562 304.591 232.562Z" fill="white"/>
<path d="M172.197 103.597V0.697266C145.133 0.697266 118.453 7.10264 94.338 19.3897C70.2233 31.6767 49.3589 49.4965 33.4508 71.3922C17.5427 93.2879 7.04245 118.638 2.80862 145.369C-1.4252 172.1 0.7276 199.454 9.091 225.194C17.4544 250.934 31.7909 274.329 50.9285 293.467C70.066 312.604 93.461 326.941 119.201 335.304C144.941 343.667 172.295 345.82 199.026 341.586C225.757 337.353 251.107 326.852 273.003 310.944L212.52 227.696C203.761 234.059 193.621 238.26 182.929 239.953C172.236 241.647 161.295 240.786 150.999 237.44C140.703 234.095 131.345 228.36 123.69 220.705C116.035 213.05 110.3 203.692 106.955 193.396C103.609 183.1 102.748 172.159 104.442 161.466C106.135 150.774 110.336 140.634 116.699 131.875C123.062 123.117 131.408 115.989 141.054 111.074C150.7 106.16 161.372 103.597 172.197 103.597Z" fill="#FF8C00" stroke="white" stroke-width="1.39431"/>
<path d="M35.8274 208.811L34.2431 208.935C34.1015 208.31 33.9009 207.855 33.6413 207.572C33.2105 207.118 32.6795 206.891 32.0482 206.891C31.5407 206.891 31.0952 207.032 30.7117 207.316C30.2102 207.681 29.8149 208.215 29.5257 208.917C29.2366 209.62 29.0862 210.62 29.0743 211.918C29.4579 211.334 29.927 210.9 30.4816 210.617C31.0362 210.334 31.6174 210.192 32.2252 210.192C33.2872 210.192 34.19 210.584 34.9335 211.369C35.6828 212.148 36.0575 213.157 36.0575 214.396C36.0575 215.21 35.8805 215.968 35.5264 216.671C35.1783 217.367 34.6974 217.901 34.0838 218.273C33.4702 218.644 32.7739 218.83 31.9951 218.83C30.6675 218.83 29.5847 218.343 28.7469 217.37C27.909 216.39 27.4901 214.78 27.4901 212.537C27.4901 210.03 27.9533 208.206 28.8796 207.068C29.688 206.076 30.7766 205.581 32.1455 205.581C33.1663 205.581 34.0012 205.867 34.6502 206.439C35.3052 207.012 35.6976 207.802 35.8274 208.811ZM29.3222 214.405C29.3222 214.954 29.4372 215.479 29.6673 215.98C29.9034 216.482 30.2308 216.865 30.6498 217.131C31.0687 217.39 31.5083 217.52 31.9685 217.52C32.6411 217.52 33.2194 217.249 33.7032 216.706C34.1871 216.163 34.429 215.426 34.429 214.493C34.429 213.596 34.19 212.891 33.7121 212.378C33.2341 211.859 32.6323 211.599 31.9065 211.599C31.1867 211.599 30.576 211.859 30.0745 212.378C29.5729 212.891 29.3222 213.567 29.3222 214.405ZM37.6506 212.21C37.6506 210.676 37.807 209.443 38.1197 208.51C38.4383 207.572 38.9074 206.849 39.5269 206.342C40.1524 205.835 40.9371 205.581 41.8812 205.581C42.5774 205.581 43.1881 205.722 43.7133 206.006C44.2384 206.283 44.6721 206.687 45.0143 207.218C45.3565 207.743 45.625 208.386 45.8197 209.148C46.0144 209.903 46.1118 210.924 46.1118 212.21C46.1118 213.732 45.9554 214.962 45.6427 215.901C45.33 216.833 44.8609 217.556 44.2354 218.069C43.6159 218.576 42.8311 218.83 41.8812 218.83C40.6303 218.83 39.6479 218.382 38.9339 217.485C38.0784 216.405 37.6506 214.647 37.6506 212.21ZM39.288 212.21C39.288 214.34 39.5358 215.759 40.0314 216.467C40.5329 217.169 41.1495 217.52 41.8812 217.52C42.6128 217.52 43.2265 217.166 43.7221 216.458C44.2236 215.75 44.4744 214.334 44.4744 212.21C44.4744 210.074 44.2236 208.655 43.7221 207.953C43.2265 207.251 42.6069 206.9 41.8635 206.9C41.1318 206.9 40.5477 207.209 40.1111 207.829C39.5623 208.619 39.288 210.08 39.288 212.21ZM48.0412 208.749C48.0412 207.823 48.2743 207.035 48.7404 206.386C49.2065 205.737 49.8821 205.413 50.7672 205.413C51.5814 205.413 52.2541 205.705 52.7851 206.289C53.3221 206.867 53.5905 207.72 53.5905 208.847C53.5905 209.944 53.3191 210.791 52.7763 211.387C52.2393 211.977 51.5755 212.272 50.7849 212.272C50.0001 212.272 49.3452 211.98 48.8201 211.396C48.3008 210.812 48.0412 209.929 48.0412 208.749ZM50.8114 206.51C50.4161 206.51 50.0857 206.681 49.8202 207.023C49.5606 207.366 49.4307 207.994 49.4307 208.909C49.4307 209.741 49.5635 210.328 49.829 210.67C50.0945 211.006 50.422 211.174 50.8114 211.174C51.2127 211.174 51.5431 211.003 51.8027 210.661C52.0682 210.319 52.201 209.693 52.201 208.785C52.201 207.947 52.0682 207.36 51.8027 207.023C51.5372 206.681 51.2068 206.51 50.8114 206.51ZM50.8203 219.087L57.9185 205.413H59.2107L52.139 219.087H50.8203ZM56.4316 215.564C56.4316 214.632 56.6646 213.844 57.1308 213.201C57.5969 212.552 58.2755 212.228 59.1664 212.228C59.9807 212.228 60.6533 212.52 61.1844 213.104C61.7213 213.682 61.9898 214.535 61.9898 215.662C61.9898 216.759 61.7183 217.606 61.1755 218.202C60.6386 218.792 59.9718 219.087 59.1753 219.087C58.3905 219.087 57.7356 218.795 57.2104 218.211C56.6912 217.621 56.4316 216.738 56.4316 215.564ZM59.2107 213.325C58.8094 213.325 58.4761 213.496 58.2106 213.838C57.9509 214.181 57.8211 214.809 57.8211 215.724C57.8211 216.55 57.9539 217.134 58.2194 217.476C58.4849 217.818 58.8124 217.989 59.2018 217.989C59.609 217.989 59.9423 217.818 60.2019 217.476C60.4675 217.134 60.6002 216.508 60.6002 215.6C60.6002 214.762 60.4675 214.175 60.2019 213.838C59.9364 213.496 59.606 213.325 59.2107 213.325Z" fill="white"/>
</svg>
