<svg xmlns="http://www.w3.org/2000/svg" width="25" height="25" viewBox="0 0 25 25" fill="none">
  <g clip-path="url(#clip0_40_1761)">
    <path d="M12.0395 0C18.689 0 24.0791 5.3901 24.0791 12.0395C24.0791 18.689 18.689 24.0791 12.0395 24.0791C5.3901 24.0791 0 18.689 0 12.0395C0 5.3901 5.3901 0 12.0395 0Z" fill="#034CFF"/>
    <path d="M4.63037 15.4286L12.0588 11.2594L11.8806 12.5091L4.63037 8.78765V6.2148L7.92318 8.13751L10.0987 9.38721L14.7327 12.0492L10.1096 14.6966L7.93041 15.9451L4.63037 18.0196V15.4286Z" fill="white"/>
    <path d="M8.55529 7.24298C8.32052 7.52591 8.10863 7.82328 7.92322 8.13752L10.0988 9.38722C10.2131 9.17773 10.342 8.97787 10.4852 8.78765C10.8284 8.33376 11.257 7.97859 11.7723 7.72215C12.2863 7.45247 12.8871 7.31762 13.5734 7.31762C14.1982 7.31762 14.7183 7.4031 15.1349 7.57527C15.5635 7.74623 15.9066 7.96174 16.1643 8.21818C16.4219 8.47583 16.6109 8.73949 16.7337 9.00797C16.8457 9.22107 16.924 9.40528 16.9673 9.55938L19.4414 9.40287C19.3957 9.19699 19.3198 8.94898 19.2139 8.65883C19.079 8.29162 18.8768 7.89913 18.6071 7.48257C18.3494 7.066 18.0003 6.67351 17.5597 6.3063C17.119 5.9391 16.5676 5.63811 15.9054 5.40575C15.2432 5.17339 14.4535 5.0566 13.5348 5.0566C12.432 5.0566 11.464 5.25285 10.6309 5.64413C9.80981 6.03662 9.11754 6.56877 8.55409 7.24298H8.55529Z" fill="white"/>
    <path d="M10.6321 18.4349C11.4652 18.8274 12.4332 19.0224 13.536 19.0224C14.4546 19.0224 15.2456 18.9057 15.9066 18.6733C16.5688 18.4409 17.119 18.1399 17.5608 17.7727C18.0015 17.3923 18.3506 17.001 18.6083 16.5965C18.878 16.1799 19.0802 15.7874 19.2151 15.4202C19.3258 15.1072 19.4041 14.8447 19.4486 14.6316L16.9914 14.4282C16.954 14.5991 16.8686 14.8146 16.7337 15.0711C16.6109 15.3287 16.4207 15.5852 16.1643 15.8428C15.9066 16.1005 15.5635 16.3208 15.1349 16.5038C14.7183 16.6759 14.1982 16.7614 13.5733 16.7614C12.8871 16.7614 12.2875 16.6266 11.7722 16.3569C11.2569 16.0872 10.8283 15.726 10.4852 15.2721C10.3455 15.0879 10.2203 14.8953 10.1096 14.6942L7.93042 15.9427C8.11462 16.2534 8.32291 16.5495 8.55647 16.8337C9.11992 17.4946 9.8122 18.028 10.6333 18.4325L10.6321 18.4349Z" fill="white"/>
  </g>
  <defs>
    <clipPath id="clip0_40_1761">
      <rect width="24.0791" height="24.0791" fill="white"/>
    </clipPath>
  </defs>
</svg>