<svg xmlns="http://www.w3.org/2000/svg" width="20" height="20" viewBox="0 0 20 20" fill="none">
  <path d="M10 0C15.5228 0 20 4.47715 20 10C20 15.5228 15.5228 20 10 20C4.47715 20 0 15.5228 0 10C0 4.47715 4.47715 0 10 0ZM13.249 13.8154C13.249 14.2927 12.86 14.6816 12.3828 14.6816H7.06445V14.9473C7.06445 15.2522 7.31226 15.5 7.61719 15.5H13.54C13.845 15.5 14.0928 15.2522 14.0928 14.9473V7.18457C14.0928 6.87964 13.8459 6.63184 13.541 6.63184H13.249V13.8154ZM8.43555 5.68262C8.43762 5.70141 8.43848 5.72138 8.43848 5.74121V7.25391C8.43848 7.68301 8.0902 8.03207 7.66113 8.03223H6.14746C6.13186 8.03222 6.1152 8.03131 6.09961 8.03027H5.90723V13.8154C5.90723 14.1203 6.15503 14.3682 6.45996 14.3682H12.3818C12.6868 14.3682 12.9346 14.1203 12.9346 13.8154V6.05273C12.9346 5.74781 12.6868 5.5 12.3818 5.5H8.43555V5.68262ZM9.5332 11.9678C9.67731 11.9678 9.79395 12.0854 9.79395 12.2295C9.79385 12.3735 9.67627 12.4902 9.53223 12.4902H7.60156C7.45751 12.4902 7.33993 12.3735 7.33984 12.2295C7.33984 12.0854 7.45745 11.9678 7.60156 11.9678H9.5332ZM11.4639 10.6357C11.6079 10.6357 11.7254 10.7525 11.7256 10.8965C11.7256 11.0406 11.608 11.1582 11.4639 11.1582H7.60156C7.45745 11.1582 7.33984 11.0406 7.33984 10.8965C7.34003 10.7525 7.45757 10.6357 7.60156 10.6357H11.4639ZM11.4639 9.2207C11.6079 9.2207 11.7254 9.33751 11.7256 9.48145C11.7256 9.62556 11.608 9.74316 11.4639 9.74316H7.60156C7.45745 9.74316 7.33984 9.62556 7.33984 9.48145C7.34005 9.33751 7.45758 9.2207 7.60156 9.2207H11.4639ZM7.89062 5.50879C7.83321 5.50881 7.77556 5.52913 7.72754 5.57715L5.98242 7.32227C5.83655 7.46841 5.93995 7.71849 6.14746 7.71875H7.66504C7.91771 7.71666 8.12284 7.51242 8.125 7.25977V5.74121C8.12498 5.6013 8.00965 5.50879 7.89062 5.50879Z" fill="#D7D7D7"/>
</svg>