<svg xmlns="http://www.w3.org/2000/svg" width="20" height="20" viewBox="0 0 20 20" fill="none">
  <g clip-path="url(#clip0_39_854)">
    <path fill-rule="evenodd" clip-rule="evenodd" d="M10 20C4.48598 20 0 15.514 0 10C0 4.48598 4.48598 0 10 0C15.514 0 20 4.48598 20 10C20 15.514 15.514 20 10 20ZM11.8384 15.3162C13.2597 14.8233 14.4241 13.7758 15.0709 12.4336H12.7805C12.652 13.2057 12.4619 13.9178 12.2163 14.5319C12.1005 14.8213 11.974 15.0829 11.8384 15.3162ZM4.92918 12.4336C5.57594 13.7758 6.74031 14.8233 8.1616 15.3162C8.02602 15.0829 7.89949 14.8213 7.78371 14.5319C7.53805 13.9178 7.34797 13.2058 7.21953 12.4336H4.92918ZM8.1616 4.68383C6.74031 5.17672 5.57594 6.22422 4.92918 7.56641H7.21953C7.34797 6.79426 7.53805 6.08223 7.78371 5.46812C7.89949 5.17871 8.02598 4.91707 8.1616 4.68383ZM10 4.375C9.58992 4.375 9.10871 4.94113 8.74422 5.85234C8.54313 6.35512 8.38371 6.93539 8.26922 7.56641H11.7308C11.6163 6.93543 11.457 6.35512 11.2558 5.85234C10.8913 4.94113 10.4101 4.375 10 4.375ZM4.375 10C4.375 10.4829 4.43621 10.9516 4.55117 11.3991H7.08855C7.04746 10.9441 7.02566 10.4759 7.02566 10C7.02566 9.52414 7.04746 9.05594 7.08855 8.60086H4.55117C4.43621 9.04836 4.375 9.51715 4.375 10ZM8.12664 11.3991H11.8734C11.9171 10.947 11.9399 10.4782 11.9399 10C11.9399 9.52184 11.9171 9.05305 11.8734 8.60086H8.12664C8.08297 9.05305 8.06016 9.52184 8.06016 10C8.06016 10.4782 8.08293 10.947 8.12664 11.3991ZM10 15.625C10.4101 15.625 10.8913 15.0589 11.2558 14.1477C11.4569 13.6449 11.6163 13.0646 11.7308 12.4336H8.26918C8.38367 13.0646 8.54309 13.6449 8.74418 14.1477C9.10871 15.0589 9.58992 15.625 10 15.625ZM15.625 10C15.625 9.51715 15.5638 9.04836 15.4488 8.60086H12.9114C12.9525 9.05594 12.9743 9.52414 12.9743 10C12.9743 10.4759 12.9525 10.9441 12.9114 11.3991H15.4488C15.5638 10.9516 15.625 10.4829 15.625 10ZM15.0708 7.56637C14.4241 6.22418 13.2597 5.17668 11.8384 4.68379C11.9739 4.91707 12.1005 5.17871 12.2162 5.46812C12.4619 6.08223 12.652 6.79422 12.7804 7.56641L15.0708 7.56637ZM16.6595 10C16.6595 13.672 13.672 16.6595 10 16.6595C6.32793 16.6595 3.34051 13.672 3.34051 10C3.34051 6.32797 6.32793 3.34051 10 3.34051C13.6721 3.34051 16.6595 6.32797 16.6595 10Z" fill="#D7D7D7"/>
  </g>
  <defs>
    <clipPath id="clip0_39_854">
      <rect width="20" height="20" fill="white"/>
    </clipPath>
  </defs>
</svg>